<svg width="313" height="31" viewBox="0 0 313 31" fill="none" xmlns="http://www.w3.org/2000/svg">
<g clip-path="url(#clip0_1_849)">
<path d="M63.9202 22.5709C63.9287 22.161 63.8458 21.7543 63.6775 21.3807C63.5092 21.0071 63.2598 20.6759 62.9475 20.4113C62.1959 19.7943 61.3666 19.279 60.481 18.8787L57.2502 17.4506C56.1158 16.9787 55.0426 16.3705 54.0542 15.6394C53.062 14.9333 52.2229 14.0327 51.5877 12.9922C50.888 11.7651 50.5506 10.3638 50.6151 8.95175C50.5907 7.68621 50.8273 6.42927 51.3099 5.25962C51.7728 4.23578 52.476 3.33948 53.3595 2.64726C54.2786 1.92814 55.3288 1.39571 56.4512 1.07983C57.7566 0.746519 59.0993 0.582634 60.4462 0.592192C62.0537 0.583733 63.6584 0.723659 65.2402 1.01018C66.5377 1.24656 67.7914 1.68119 68.9573 2.29893L67.1509 7.10569C66.2889 6.62329 65.3657 6.26007 64.4065 6.02592C63.1106 5.70876 61.7801 5.55661 60.4462 5.57309C59.3721 5.49902 58.3022 5.76723 57.3892 6.33939C57.0648 6.58992 56.8021 6.91177 56.6214 7.28015C56.4406 7.64852 56.3467 8.05357 56.3467 8.46411C56.3467 8.87465 56.4406 9.2797 56.6214 9.64808C56.8021 10.0164 57.0648 10.3383 57.3892 10.5888C58.1314 11.2014 58.9486 11.7164 59.8209 12.1214L63.0517 13.5843C64.1795 14.0698 65.2512 14.6771 66.2477 15.3956C67.2326 16.11 68.0702 17.009 68.7142 18.0428C69.4138 19.219 69.7521 20.5759 69.6869 21.9439C69.7258 23.3302 69.4651 24.7086 68.9226 25.9843C68.4174 27.0704 67.6824 28.0331 66.7688 28.8057C65.7293 29.5827 64.5496 30.1504 63.2949 30.4776C61.876 30.8394 60.4164 31.015 58.9525 31.0001C57.1074 31.0318 55.265 30.8447 53.4637 30.4428C52.2689 30.1661 51.1051 29.7693 49.9897 29.2585L51.8309 24.3821C52.2135 24.5806 52.608 24.755 53.0121 24.9046C53.5451 25.1218 54.0903 25.3078 54.6448 25.4619C55.284 25.6415 55.9337 25.7811 56.5902 25.8798C57.2956 25.933 58.0039 25.933 58.7093 25.8798C60.0608 25.9466 61.4052 25.6458 62.6001 25.0091C63.0086 24.7486 63.3442 24.3881 63.5752 23.9614C63.8062 23.5348 63.9249 23.0563 63.9202 22.5709Z" fill="#1D1D1B"/>
<path d="M94.1431 6.2695H85.632V30.4425H79.9348V6.2695H71.3889V1.18408H94.1431V6.2695Z" fill="#1D1D1B"/>
<path d="M97.0961 1.46284L99.1457 1.14937L101.369 0.905547H103.523H105.433C106.784 0.898841 108.133 1.01542 109.463 1.25386C110.686 1.50086 111.86 1.94803 112.937 2.57744C113.982 3.17106 114.846 4.03783 115.438 5.08531C116.101 6.32561 116.425 7.71958 116.376 9.12577C116.472 11.2065 115.887 13.2616 114.709 14.9775C113.592 16.4804 112.02 17.5803 110.228 18.1123L112.277 19.401L118.947 30.5819H112.381L105.746 19.1224L102.724 18.5651V30.5819H97.0266L97.0961 1.46284ZM105.85 5.85161H104.113C103.674 5.81843 103.233 5.81843 102.793 5.85161V14.3505H105.225C106.577 14.4197 107.912 14.0267 109.012 13.2359C109.502 12.8057 109.886 12.2671 110.133 11.6626C110.38 11.0581 110.484 10.4043 110.436 9.75274C110.469 9.20757 110.381 8.66177 110.176 8.15547C109.972 7.64916 109.657 7.19519 109.255 6.82688C108.287 6.07489 107.068 5.72561 105.85 5.85161Z" fill="#1D1D1B"/>
<path d="M122.178 1.18408H139.547V6.2695H127.91V13.2358H138.331V18.3212H127.91V25.2875H139.686V30.4077H122.317L122.178 1.18408Z" fill="#1D1D1B"/>
<path d="M158.341 23.9639H149.379L147.155 30.4425H141.458L151.88 0.975098H156.083L166.505 30.4425H160.495L158.341 23.9639ZM150.838 19.4009H157.091L154.902 12.8526L154.034 8.25489H153.825L152.957 12.9223L150.838 19.4009Z" fill="#1D1D1B"/>
<path d="M191.795 15.256L192.421 9.43915H192.177L190.371 14.1414L184.187 25.0437H182.346L175.78 14.0717L173.974 9.43915H173.766L174.599 15.2212V30.4425H169.25V1.18408H174.46L182.242 14.5594L183.632 18.0425L184.847 14.5594L192.247 1.2886H197.423V30.547H191.691L191.795 15.256Z" fill="#1D1D1B"/>
<path d="M202.529 1.46284L204.579 1.14937L206.802 0.905548H208.921H210.936C212.276 0.898827 213.613 1.01542 214.931 1.25386C216.154 1.50086 217.327 1.94803 218.405 2.57744C219.459 3.17024 220.335 4.03645 220.941 5.08531C221.604 6.32561 221.927 7.71959 221.879 9.12578C221.957 11.2044 221.373 13.2541 220.212 14.9775C219.086 16.4715 217.517 17.5691 215.73 18.1123L217.78 19.401L224.45 30.5819H217.884L211.249 19.1224L208.261 18.5651V30.5819H202.564L202.529 1.46284ZM211.284 5.85161H209.547C209.107 5.81843 208.666 5.81843 208.227 5.85161V14.3505H210.658C212.009 14.4142 213.343 14.0217 214.445 13.2359C214.935 12.8057 215.319 12.2671 215.566 11.6626C215.814 11.0581 215.917 10.4043 215.869 9.75274C215.895 9.20838 215.803 8.66477 215.599 8.15959C215.395 7.6544 215.085 7.19968 214.688 6.82689C213.721 6.07489 212.501 5.72561 211.284 5.85161Z" fill="#E52038"/>
<path d="M225.318 15.9178C225.067 11.9005 226.195 7.91794 228.514 4.63245C229.642 3.30894 231.06 2.26495 232.657 1.58214C234.254 0.899334 235.987 0.5962 237.72 0.696474C239.595 0.64975 241.457 1.01846 243.174 1.77627C244.7 2.46613 246.027 3.53269 247.03 4.87627C248.121 6.30034 248.902 7.93776 249.323 9.683C249.861 11.7164 250.118 13.8143 250.087 15.9178C250.337 19.9295 249.196 23.9044 246.856 27.1684C245.743 28.4906 244.337 29.5346 242.752 30.2178C241.166 30.9009 239.443 31.2045 237.72 31.1044C235.822 31.1545 233.937 30.7859 232.197 30.0246C230.67 29.3347 229.344 28.2682 228.34 26.9246C227.275 25.4899 226.507 23.8554 226.082 22.1178C225.546 20.0959 225.289 18.0098 225.318 15.9178ZM231.328 15.9178C231.325 17.2854 231.453 18.6501 231.71 19.9931C231.911 21.1071 232.298 22.1789 232.857 23.1628C233.329 24.0168 234.01 24.736 234.837 25.2527C235.7 25.7901 236.704 26.0569 237.72 26.019C238.638 26.055 239.55 25.8566 240.37 25.4423C241.191 25.028 241.892 24.4114 242.41 23.6504C243.699 21.2886 244.278 18.6028 244.077 15.9178C244.092 14.586 243.975 13.256 243.73 11.947C243.534 10.8147 243.159 9.72106 242.618 8.70772C242.162 7.83511 241.492 7.09228 240.673 6.54816C239.776 6.03002 238.755 5.76521 237.72 5.78186C236.79 5.74732 235.867 5.95351 235.039 6.38056C234.212 6.8076 233.508 7.44112 232.996 8.22008C231.713 10.5718 231.134 13.2445 231.328 15.9178Z" fill="#E52038"/>
<path d="M253.249 15.9178C252.998 11.9005 254.125 7.91794 256.445 4.63245C257.573 3.30894 258.99 2.26495 260.587 1.58214C262.185 0.899334 263.917 0.5962 265.651 0.696474C267.526 0.64975 269.388 1.01846 271.105 1.77627C272.631 2.46613 273.958 3.53269 274.961 4.87627C276.052 6.30034 276.833 7.93776 277.254 9.683C277.792 11.7164 278.049 13.8143 278.018 15.9178C278.268 19.9295 277.127 23.9044 274.787 27.1684C273.674 28.4906 272.268 29.5346 270.682 30.2178C269.097 30.9009 267.374 31.2045 265.651 31.1044C263.753 31.1545 261.867 30.7859 260.127 30.0246C258.601 29.3347 257.274 28.2682 256.271 26.9246C255.205 25.4899 254.438 23.8554 254.013 22.1178C253.477 20.0959 253.22 18.0098 253.249 15.9178ZM259.259 15.9178C259.255 17.2854 259.383 18.6501 259.641 19.9931C259.841 21.1071 260.229 22.1789 260.787 23.1628C261.26 24.0168 261.941 24.736 262.767 25.2527C263.631 25.7901 264.635 26.0569 265.651 26.019C266.569 26.055 267.481 25.8566 268.301 25.4423C269.121 25.028 269.823 24.4114 270.341 23.6504C271.63 21.2886 272.209 18.6028 272.008 15.9178C272.022 14.586 271.906 13.256 271.661 11.947C271.465 10.8147 271.09 9.72106 270.549 8.70772C270.092 7.83511 269.423 7.09228 268.604 6.54816C267.706 6.03002 266.686 5.76521 265.651 5.78186C264.721 5.74732 263.797 5.95351 262.97 6.38056C262.142 6.8076 261.439 7.44112 260.926 8.22008C259.643 10.5718 259.064 13.2445 259.259 15.9178Z" fill="#E52038"/>
<path d="M313 1.18408V30.4425H307.268V6.2695H300.32V30.4425H294.623V6.2695H287.675V30.4425H281.943V1.18408H313Z" fill="#E52038"/>
<path d="M15.181 30.4427C23.5653 30.4427 30.362 23.6279 30.362 15.2213C30.362 6.81483 23.5653 0 15.181 0C6.79677 0 0 6.81483 0 15.2213C0 23.6279 6.79677 30.4427 15.181 30.4427Z" fill="#E52038"/>
</g>
<defs>
<clipPath id="clip0_1_849">
<rect width="313" height="31" fill="white"/>
</clipPath>
</defs>
</svg>
